<?xml version="1.0"?>
<svg width="100" height="100" xmlns="http://www.w3.org/2000/svg" xmlns:svg="http://www.w3.org/2000/svg">
 <!-- Hexagon outline -->
 <!-- Kiwi outer ring (brown) -->
 <!-- Main kiwi flesh (green) -->
 <!-- Lighter green ring -->
 <!-- Center pulp (light green) -->
 <!-- Seeds (black teardrop shapes) -->
 <g class="layer">
  <title>Layer 1</title>
  <rect fill="#ffffff" height="123" id="svg_26" stroke="#000000" stroke-width="0" width="380" x="-22" y="-12.3"/>
  <path d="m50,5l37.5,20l0,50l-37.5,20l-37.5,-20l0,-50l37.5,-20z" fill="none" id="svg_1" stroke="black" stroke-width="4"/>
  <circle cx="50" cy="50" fill="#754C24" id="svg_2" r="30"/>
  <circle cx="50" cy="50" fill="#7CB342" id="svg_3" r="28"/>
  <circle cx="50" cy="50" fill="#8BC34A" id="svg_4" r="26"/>
  <path d="m50,35q10,5 15,15q-5,10 -15,15q-10,-5 -15,-15q5,-10 15,-15" fill="#C5E1A5" id="svg_5"/>
  <g fill="black" id="svg_6">
   <!-- Outer ring of seeds -->
   <path d="m50,30q2,2 0,4q-2,-2 0,-4z" id="svg_7"/>
   <path d="m60,32q2,2 0,4q-2,-2 0,-4z" id="svg_8"/>
   <path d="m68,40q2,2 0,4q-2,-2 0,-4z" id="svg_9"/>
   <path d="m70,50q2,2 0,4q-2,-2 0,-4z" id="svg_10"/>
   <path d="m68,60q2,2 0,4q-2,-2 0,-4z" id="svg_11"/>
   <path d="m60,66q2,2 0,4q-2,-2 0,-4z" id="svg_12"/>
   <path d="m50,68q2,2 0,4q-2,-2 0,-4z" id="svg_13"/>
   <path d="m40,66q2,2 0,4q-2,-2 0,-4z" id="svg_14"/>
   <path d="m32,60q2,2 0,4q-2,-2 0,-4z" id="svg_15"/>
   <path d="m30,50q2,2 0,4q-2,-2 0,-4z" id="svg_16"/>
   <path d="m32,40q2,2 0,4q-2,-2 0,-4z" id="svg_17"/>
   <path d="m40,32q2,2 0,4q-2,-2 0,-4z" id="svg_18"/>
   <!-- Inner ring of seeds -->
   <path d="m50,40q2,2 0,4q-2,-2 0,-4z" id="svg_19"/>
   <path d="m60,45q2,2 0,4q-2,-2 0,-4z" id="svg_20"/>
   <path d="m60,55q2,2 0,4q-2,-2 0,-4z" id="svg_21"/>
   <path d="m50,60q2,2 0,4q-2,-2 0,-4z" id="svg_22"/>
   <path d="m40,55q2,2 0,4q-2,-2 0,-4z" id="svg_23"/>
   <path d="m40,45q2,2 0,4q-2,-2 0,-4z" id="svg_24"/>
  </g>
  <text fill="#000000" font-family="Monospace" font-size="48" font-weight="normal" id="svg_25" stroke="#000000" stroke-width="0" text-anchor="middle" x="225" xml:space="preserve" y="62.7">KiwiFlow</text>
 </g>
</svg>