<svg viewBox="0 0 100 100" xmlns="http://www.w3.org/2000/svg">
  <!-- Hexagon outline -->
  <path 
    d="M50 5 L87.5 25 L87.5 75 L50 95 L12.5 75 L12.5 25 Z" 
    fill="none" 
    stroke="black" 
    stroke-width="4"
  />
  
  <!-- Kiwi outer ring (brown) -->
  <circle cx="50" cy="50" r="30" fill="#754C24"/>
  
  <!-- Main kiwi flesh (green) -->
  <circle cx="50" cy="50" r="28" fill="#7CB342"/>
  
  <!-- Lighter green ring -->
  <circle cx="50" cy="50" r="26" fill="#8BC34A"/>
  
  <!-- Center pulp (light green) -->
  <path d="M50 35 Q60 40 65 50 Q60 60 50 65 Q40 60 35 50 Q40 40 50 35" 
        fill="#C5E1A5"/>
  
  <!-- Seeds (black teardrop shapes) -->
  <g fill="black">
    <!-- Outer ring of seeds -->
    <path d="M50 30 Q52 32 50 34 Q48 32 50 30 Z"/>
    <path d="M60 32 Q62 34 60 36 Q58 34 60 32 Z"/>
    <path d="M68 40 Q70 42 68 44 Q66 42 68 40 Z"/>
    <path d="M70 50 Q72 52 70 54 Q68 52 70 50 Z"/>
    <path d="M68 60 Q70 62 68 64 Q66 62 68 60 Z"/>
    <path d="M60 66 Q62 68 60 70 Q58 68 60 66 Z"/>
    <path d="M50 68 Q52 70 50 72 Q48 70 50 68 Z"/>
    <path d="M40 66 Q42 68 40 70 Q38 68 40 66 Z"/>
    <path d="M32 60 Q34 62 32 64 Q30 62 32 60 Z"/>
    <path d="M30 50 Q32 52 30 54 Q28 52 30 50 Z"/>
    <path d="M32 40 Q34 42 32 44 Q30 42 32 40 Z"/>
    <path d="M40 32 Q42 34 40 36 Q38 34 40 32 Z"/>
    
    <!-- Inner ring of seeds -->
    <path d="M50 40 Q52 42 50 44 Q48 42 50 40 Z"/>
    <path d="M60 45 Q62 47 60 49 Q58 47 60 45 Z"/>
    <path d="M60 55 Q62 57 60 59 Q58 57 60 55 Z"/>
    <path d="M50 60 Q52 62 50 64 Q48 62 50 60 Z"/>
    <path d="M40 55 Q42 57 40 59 Q38 57 40 55 Z"/>
    <path d="M40 45 Q42 47 40 49 Q38 47 40 45 Z"/>
  </g>
</svg>
