<svg viewBox="0 0 120 120" xmlns="http://www.w3.org/2000/svg">
  <style>
    .hexagon {
      transform-origin: center;
      animation: hexagonEnter 1.2s ease-out forwards;
    }
    .kiwi-part {
      opacity: 0;
      transform-origin: center;
      animation: kiwiEnter 1s ease-in forwards;
      animation-delay: 0.4s;
    }
    @keyframes hexagonEnter {
      0% { transform: scale(0) rotate(0deg); opacity: 0; }
      60% { transform: scale(1.15) rotate(45deg); opacity: 1; }
      100% { transform: scale(1) rotate(0deg); opacity: 1; }
    }
    @keyframes kiwiEnter {
      0% { opacity: 0; transform: scale(0.8); }
      100% { opacity: 1; transform: scale(1); }
    }
  </style>

  <!-- Hexagon outline, shifted to center in larger viewBox -->
  <path
    class="hexagon"
    d="M60 15 L97.5 35 L97.5 85 L60 105 L22.5 85 L22.5 35 Z"
    fill="none"
    stroke="black"
    stroke-width="4"
  />

  <!-- Kiwi outer ring (brown), centered -->
  <circle class="kiwi-part" cx="60" cy="60" r="30" fill="#754C24"/>

  <!-- Main kiwi flesh (green) -->
  <circle class="kiwi-part" cx="60" cy="60" r="28" fill="#7CB342"/>

  <!-- Lighter green ring -->
  <circle class="kiwi-part" cx="60" cy="60" r="26" fill="#8BC34A"/>

  <!-- Center pulp (light green), adjusted coordinates -->
  <path class="kiwi-part" d="M60 45 Q70 50 75 60 Q70 70 60 75 Q50 70 45 60 Q50 50 60 45"
        fill="#C5E1A5"/>

  <!-- Seeds (black teardrop shapes), adjusted coordinates -->
  <g class="kiwi-part" fill="black">
    <!-- Outer ring of seeds -->
    <path d="M60 40 Q62 42 60 44 Q58 42 60 40 Z"/>
    <path d="M70 42 Q72 44 70 46 Q68 44 70 42 Z"/>
    <path d="M78 50 Q80 52 78 54 Q76 52 78 50 Z"/>
    <path d="M80 60 Q82 62 80 64 Q78 62 80 60 Z"/>
    <path d="M78 70 Q80 72 78 74 Q76 72 78 70 Z"/>
    <path d="M70 76 Q72 78 70 80 Q68 78 70 76 Z"/>
    <path d="M60 78 Q62 80 60 82 Q58 80 60 78 Z"/>
    <path d="M50 76 Q52 78 50 80 Q48 78 50 76 Z"/>
    <path d="M42 70 Q44 72 42 74 Q40 72 42 70 Z"/>
    <path d="M40 60 Q42 62 40 64 Q38 62 40 60 Z"/>
    <path d="M42 50 Q44 52 42 54 Q40 52 42 50 Z"/>
    <path d="M50 42 Q52 44 50 46 Q48 44 50 42 Z"/>

    <!-- Inner ring of seeds -->
    <path d="M60 50 Q62 52 60 54 Q58 52 60 50 Z"/>
    <path d="M70 55 Q72 57 70 59 Q68 57 70 55 Z"/>
    <path d="M70 65 Q72 67 70 69 Q68 67 70 65 Z"/>
    <path d="M60 70 Q62 72 60 74 Q58 72 60 70 Z"/>
    <path d="M50 65 Q52 67 50 69 Q48 67 50 65 Z"/>
    <path d="M50 55 Q52 57 50 59 Q48 57 50 55 Z"/>
  </g>
</svg>
